<svg width="119" height="188" viewBox="0 0 119 188" fill="none" xmlns="http://www.w3.org/2000/svg">
<path fill-rule="evenodd" clip-rule="evenodd" d="M58.5847 0.000166537C62.4709 0.000261436 64.7679 1.64832 66.0613 3.57829C67.3217 5.45902 67.5887 7.54119 67.5887 8.4445V50.4924C68.4991 49.8944 69.4757 49.5429 70.3221 49.466C71.3281 49.3746 72.1975 49.5577 72.9773 50.0207C73.7377 50.4722 74.3619 51.1599 74.9412 51.9875C75.2972 52.4961 76.0656 53.9117 76.9763 55.6515C77.901 57.4179 79.0054 59.583 80.0457 61.6427C81.5351 64.5917 82.8979 67.3315 83.4226 68.381C84.0785 69.693 85.9265 74.6077 87.6609 79.4875C88.5332 81.9417 89.3835 84.4092 90.0515 86.4416C90.7125 88.4525 91.2125 90.0911 91.3611 90.8556C91.4474 91.3 91.4679 92.2222 91.4588 93.3937C91.4493 94.6024 91.4058 96.1693 91.3387 97.967C91.2043 101.564 90.9753 106.107 90.7342 110.61C90.4924 115.123 90.2401 119.57 90.0564 123.022C89.9648 124.743 89.8906 126.206 89.8445 127.29C89.8215 127.832 89.8054 128.276 89.7976 128.609C89.7894 128.959 89.7918 129.142 89.7967 129.194C89.7971 129.196 89.8034 129.235 89.8328 129.32C89.8617 129.402 89.9061 129.509 89.9685 129.639C90.0938 129.9 90.2759 130.226 90.5086 130.607C90.9732 131.366 91.6114 132.297 92.324 133.283C93.3917 134.762 94.6097 136.344 95.6258 137.625L96.5613 138.791L96.5681 138.799L96.574 138.808L117.965 166.672C118.217 167.001 118.154 167.472 117.826 167.724C117.497 167.976 117.026 167.914 116.774 167.585L95.3972 139.737L94.4519 138.558C93.4247 137.262 92.191 135.662 91.1072 134.161C90.3856 133.162 89.7229 132.196 89.2293 131.39C88.9829 130.987 88.7712 130.613 88.615 130.286C88.4698 129.983 88.3326 129.643 88.3035 129.335C88.2887 129.178 88.291 128.901 88.2986 128.574C88.3067 128.228 88.3233 127.772 88.3465 127.227C88.3929 126.134 88.4667 124.664 88.5584 122.942C88.7413 119.505 88.9956 115.02 89.2361 110.529C89.4772 106.028 89.7058 101.495 89.8396 97.9113C89.9066 96.119 89.9495 94.5689 89.9588 93.382C89.9683 92.1589 89.9398 91.4063 89.8885 91.1418C89.7616 90.4891 89.2969 88.9482 88.6267 86.9093C87.9636 84.8918 87.1165 82.4373 86.2469 79.9904C84.4975 75.0685 82.6851 70.2596 82.0808 69.0509C81.5883 68.066 80.3644 65.6108 78.991 62.8869C78.7977 62.9423 78.589 62.9984 78.3806 63.0461C78.1449 63.1 77.8972 63.1474 77.6648 63.174C77.447 63.1989 77.1813 63.2138 76.9383 63.1652C76.181 63.0137 75.0161 62.5238 74.0535 61.672C73.7859 61.4353 73.4805 60.9842 73.1961 60.5275C72.8906 60.0369 72.5427 59.4289 72.1902 58.7902C71.4908 57.5229 70.7309 56.0618 70.2303 55.1369C70.0332 54.7728 70.169 54.3176 70.533 54.1203C70.8973 53.9231 71.3524 54.0587 71.5496 54.423C72.0749 55.3935 72.8016 56.7935 73.5037 58.0656C73.8519 58.6964 74.1848 59.2773 74.4695 59.7345C74.7754 60.2257 74.9716 60.4818 75.0476 60.549C75.8027 61.2171 76.7237 61.5916 77.2332 61.6935C77.2368 61.694 77.2581 61.6977 77.3025 61.6974C77.3518 61.6972 77.4163 61.6927 77.4949 61.6838C77.6529 61.6657 77.8426 61.6309 78.0467 61.5842C78.1314 61.5647 78.2164 61.5425 78.3006 61.5207C77.3852 59.713 76.4493 57.8771 75.6482 56.3468C74.7151 54.5643 73.9982 53.2572 73.7117 52.8478C73.1888 52.1009 72.7109 51.6072 72.2117 51.3107C71.7318 51.0258 71.1839 50.8941 70.4578 50.9601C69.5889 51.0391 68.3532 51.5816 67.3836 52.6047C66.7925 53.2284 66.3142 54.0161 66.0779 54.9611C65.7576 56.2425 65.7633 58.4924 66.0135 60.9738C66.261 63.429 66.7361 65.9993 67.2908 67.8732C68.0576 70.4636 69.9679 73.645 71.1638 75.4084L71.6267 76.0715L71.7517 76.2424L71.7674 76.4543L72.8699 90.9416C72.9012 91.3545 72.5915 91.7148 72.1785 91.7463C71.7659 91.7774 71.4055 91.4684 71.3738 91.0558L71.0027 86.1789L67.3211 82.3927V105.851L67.2556 105.997C66.7886 107.039 65.8212 109.175 65.1961 110.483C65.0859 110.713 64.9843 110.921 64.8982 111.093C64.1844 112.521 62.0042 116.569 60.823 120.175C59.8715 123.08 58.4842 128.662 57.907 131.103C57.8116 131.506 57.4077 131.756 57.0047 131.66C56.6017 131.565 56.3528 131.16 56.448 130.757C57.024 128.321 58.4243 122.681 59.3982 119.708C60.1583 117.388 61.3137 114.897 62.2439 113.015C61.6407 113.329 61.0013 113.549 60.4148 113.703C59.4988 113.944 58.6543 114.04 58.159 114.074L58.1326 114.076H41.4744L32.1248 122.955C31.8244 123.24 31.3495 123.228 31.0642 122.928C30.7793 122.628 30.7917 122.154 31.0916 121.868L39.2957 114.076H24.1648C23.9875 115.236 23.5555 116.158 23.0633 117.044C22.7639 117.583 22.3061 118.146 21.7879 118.651L32.8152 131.945L32.823 131.955C35.3424 135.096 39.2779 139.96 42.8933 144.346C46.5246 148.751 49.7932 152.624 51.0047 153.82C54.0525 156.827 57.9031 159.105 59.6873 159.803C61.4358 160.487 62.8609 160.767 64.2293 162.044C64.3943 162.198 64.7291 162.586 65.158 163.098C65.6044 163.631 66.1929 164.348 66.8875 165.204C68.2773 166.917 70.0998 169.193 72.0789 171.678C76.0375 176.649 80.6274 182.464 83.6463 186.302C83.9022 186.628 83.8458 187.099 83.5203 187.355C83.1947 187.61 82.7236 187.554 82.4676 187.229C79.4498 183.392 74.8621 177.579 70.906 172.611C68.9279 170.128 67.1078 167.857 65.7224 166.15C65.0297 165.296 64.4477 164.585 64.0086 164.061C63.5524 163.516 63.2869 163.215 63.2058 163.14C62.1151 162.122 61.1624 161.992 59.1404 161.2C57.1536 160.423 53.1334 158.027 49.951 154.887C48.6702 153.623 45.3401 149.673 41.7351 145.3C38.118 140.912 34.1833 136.048 31.6609 132.903L20.6267 119.6C20.1065 119.951 19.5463 120.233 19.0008 120.348C18.3342 120.488 17.5322 120.628 16.3797 120.449C15.2485 120.274 13.8209 119.798 11.8562 118.787C10.0764 117.872 8.38286 116.74 6.98318 115.591C5.59426 114.451 4.45024 113.26 3.81033 112.214C3.02682 110.934 2.81079 109.39 2.95096 107.921C3.09142 106.449 3.5939 104.99 4.324 103.827C4.91049 102.894 5.65558 102.185 6.37576 101.691C7.08426 101.204 7.81337 100.895 8.39041 100.808L8.44607 100.8H13.1072V99.0588C12.2288 98.8319 11.3093 98.4318 10.4998 97.8146C8.72581 96.462 5.37158 92.9084 4.2117 91.4806C3.22858 90.2704 2.52258 87.8464 3.39822 85.6105C3.84981 84.4578 4.56114 83.5209 5.25369 82.8449C5.92438 82.1903 6.65242 81.7087 7.18728 81.5549C7.37487 81.5009 7.5997 81.4546 7.85037 81.4172C7.76281 81.3285 7.67717 81.2375 7.59744 81.1408C6.9946 80.4097 6.08402 79.4644 5.01736 78.3039C3.96666 77.1607 2.79601 75.8405 1.73806 74.4172C0.769398 73.1139 0.307421 71.954 0.115995 70.9211C-0.0739045 69.8959 0.0116435 69.0346 0.0769321 68.3879C0.158814 67.5775 0.463571 66.9476 0.914823 66.3029C1.33794 65.6985 1.95825 64.9939 2.6658 64.1134C3.30887 63.3132 4.13619 62.6016 5.01053 62.0871C5.87625 61.5777 6.84524 61.2278 7.76736 61.2277H12.656V51.1467C11.856 50.3521 10.8275 49.3189 9.91287 48.3459C9.41206 47.8131 8.93942 47.2937 8.55447 46.839C8.1816 46.3986 7.85222 45.9743 7.67264 45.6457C6.37271 43.2667 6.85664 40.5941 8.03201 38.8078C8.80156 37.6384 10.624 36.5531 12.656 37.0265V8.54607C12.6562 3.81757 16.7618 0.000428493 21.5418 0.000166537C32.2663 -0.00020817 51.3142 0.000166535 58.5847 0.000166537ZM8.5701 102.3C8.27425 102.356 7.77972 102.547 7.22537 102.928C6.65351 103.321 6.05949 103.885 5.59451 104.625C4.9913 105.586 4.56281 106.82 4.44412 108.064C4.32531 109.309 4.52171 110.502 5.08963 111.431C5.60417 112.272 6.60431 113.34 7.93533 114.432C9.25566 115.515 10.8598 116.588 12.5418 117.453C14.4231 118.421 15.6926 118.824 16.6101 118.967C17.5063 119.106 18.1058 119.003 18.6922 118.88C19.1407 118.786 19.7521 118.44 20.364 117.921C20.9654 117.411 21.4766 116.811 21.7517 116.316C22.2903 115.346 22.6717 114.474 22.74 113.307C22.7324 112.2 22.0917 111.218 21.0623 110.282C20.0222 109.337 18.7344 108.569 17.6209 107.832C17.1459 107.518 16.2665 106.942 15.4207 106.359C14.5996 105.792 13.73 105.163 13.324 104.754L13.1072 104.535V102.3H8.5701ZM14.156 69.8107C14.2049 69.8703 14.2628 69.9419 14.3289 70.0226C14.5414 70.2825 14.8358 70.6431 15.1619 71.0461C15.8121 71.8497 16.5977 72.8309 17.117 73.5177C18.2056 74.9577 18.901 76.5348 18.4705 78.4533C18.0495 80.3283 16.86 81.7057 14.9226 82.7775C14.6159 82.9471 14.2334 83.0544 13.8279 83.1183C14.0508 83.3198 14.2384 83.5044 14.3875 83.6535C15.0361 84.3021 19.2338 88.5792 20.1385 89.7013C20.9521 90.7107 21.1285 91.8764 21.0447 92.8791C20.9615 93.8729 20.6208 94.7585 20.3279 95.3078C19.7957 96.3057 18.7159 98.1664 16.3025 99.0715C15.8336 99.2473 15.2416 99.3136 14.6072 99.2863V100.126H65.8211V68.1867C65.2484 66.215 64.7701 63.6019 64.5203 61.1242C64.2684 58.6258 64.2346 56.151 64.6228 54.5978C64.8998 53.4898 65.4345 52.5561 66.0887 51.8029V15.1564H14.156V69.8107ZM10.0564 82.8664C9.06494 82.7587 8.07077 82.8613 7.60135 82.9963C7.41052 83.0513 6.89509 83.3388 6.30154 83.9181C5.72947 84.4765 5.15488 85.2406 4.79568 86.1574C4.1388 87.8344 4.69408 89.6948 5.37576 90.5343C6.50064 91.919 9.76901 95.3718 11.409 96.6222C12.1551 97.1912 13.0452 97.5391 13.8738 97.6965C14.7213 97.8573 15.4134 97.8026 15.7752 97.6672C17.6538 96.9627 18.5127 95.5242 19.0047 94.6017C19.2238 94.1908 19.4869 93.5023 19.5496 92.7541C19.6114 92.0145 19.4752 91.269 18.9705 90.6427C18.1289 89.5989 14.0025 85.3906 13.326 84.714C12.6616 84.0497 11.61 83.0352 10.0564 82.8664ZM67.3211 80.2511C67.3457 80.2708 67.3698 80.2924 67.3924 80.3156L70.825 83.8459L70.2869 76.7726C69.5505 75.7347 68.3424 73.8642 67.3211 71.8468V80.2511ZM7.76736 62.7277C7.20306 62.7278 6.49929 62.9517 5.77127 63.3801C5.05156 63.8036 4.36283 64.3957 3.83474 65.0529C3.05897 66.0183 2.53018 66.6106 2.14334 67.1633C1.7847 67.6756 1.6171 68.0639 1.56912 68.5392C1.50462 69.1782 1.44311 69.8514 1.5906 70.6476C1.73672 71.4362 2.09767 72.3865 2.94217 73.5226C3.95297 74.8825 5.08076 76.1575 6.12088 77.2892C7.14508 78.4036 8.11776 79.4143 8.75467 80.1867C9.36513 80.9269 10.4652 81.4015 11.6394 81.5968C12.2129 81.6923 12.7694 81.7142 13.2371 81.6789C13.7229 81.6422 14.0453 81.5489 14.197 81.465C15.8599 80.5451 16.7021 79.4813 17.0066 78.1252C17.3012 76.8128 16.8751 75.6856 15.9197 74.422C15.4169 73.7571 14.6461 72.793 13.9959 71.9894C13.6718 71.5889 13.3791 71.2303 13.1678 70.9718C13.0622 70.8428 12.9766 70.7389 12.9178 70.6672C12.8883 70.6313 12.8658 70.6029 12.8504 70.5842C12.8427 70.5749 12.8367 70.5674 12.8328 70.5627L12.8269 70.5568L12.8113 70.5363L10.5818 67.6349C10.3296 67.3066 10.3914 66.8356 10.7195 66.5832C11.048 66.3308 11.5189 66.3924 11.7713 66.7209L12.656 67.8722V62.7277C11.1645 62.7277 8.87583 62.7277 7.76736 62.7277ZM12.656 38.59C11.172 38.0643 9.80746 38.838 9.28494 39.632C8.35186 41.05 8.0053 43.1268 8.98904 44.9269C9.08802 45.1079 9.32678 45.4285 9.69998 45.8693C10.0612 46.296 10.5135 46.795 11.0056 47.3185C11.5381 47.885 12.1122 48.474 12.656 49.0246V38.59Z" fill="black"/>
</svg>
