<svg width="176" height="194" viewBox="0 0 176 194" fill="none" xmlns="http://www.w3.org/2000/svg">
<path fill-rule="evenodd" clip-rule="evenodd" d="M63.8975 0.00443994C64.2019 -0.0287132 64.4963 0.125962 64.6406 0.396042L94.4131 56.1451C95.6989 56.2201 98.2771 56.4111 100.954 56.7046C103.939 57.032 107.167 57.4957 108.816 58.0923C109.406 58.3056 110.474 58.6046 111.872 59.0103C113.251 59.4103 114.909 59.9038 116.62 60.4947C120.003 61.663 123.733 63.2574 125.889 65.3609C126.095 65.5626 126.947 66.5368 128.141 67.9302C129.353 69.3454 130.955 71.2362 132.69 73.3121C135.726 76.9424 139.18 81.1507 141.677 84.3736L142.685 85.69L142.691 85.6988C145.106 89.007 147.775 92.2841 150.01 94.9693C152.222 97.628 154.052 99.7575 154.727 100.706C158.138 105.503 160.612 112.737 160.961 113.494C160.97 113.513 160.979 113.534 160.986 113.554L166.336 128.433L166.343 128.453L175.005 154.795C175.134 155.189 174.92 155.612 174.526 155.742C174.133 155.871 173.71 155.656 173.58 155.263L164.925 128.94L159.574 114.062C159.05 112.863 156.752 106.142 153.504 101.575C152.874 100.688 151.118 98.6468 148.856 95.9292C146.617 93.2375 143.923 89.9311 141.479 86.5835C138.994 83.291 135.004 78.4184 131.54 74.2749C129.808 72.2029 128.209 70.3162 127.001 68.9058C125.775 67.4746 124.985 66.5749 124.841 66.4341C122.95 64.5894 119.517 63.0826 116.13 61.9126C114.456 61.3344 112.826 60.8489 111.454 60.4507C110.102 60.0583 108.956 59.7386 108.306 59.5035C106.856 58.979 103.816 58.5277 100.79 58.1958C98.6754 57.964 96.6253 57.7966 95.2441 57.7007L99.9219 66.4605C100.786 66.5668 102.646 66.7167 104.534 66.8599C106.681 67.0227 108.858 67.1782 109.334 67.2476C109.711 67.3025 110.183 67.493 110.664 67.7193C111.169 67.9565 111.767 68.2744 112.424 68.6412C113.736 69.3739 115.336 70.332 116.972 71.2935C118.616 72.26 120.303 73.2341 121.82 74.0171C123.357 74.8102 124.648 75.3696 125.52 75.5533C125.925 75.6387 126.184 76.0366 126.099 76.4419C126.013 76.8468 125.615 77.1064 125.21 77.021C124.121 76.7914 122.67 76.1435 121.133 75.3501C119.576 74.5465 117.856 73.5537 116.211 72.5865C114.558 71.6143 112.985 70.6725 111.692 69.9507C111.047 69.5903 110.484 69.292 110.026 69.0767C109.545 68.8504 109.252 68.7516 109.117 68.732C108.709 68.6725 106.628 68.5224 104.421 68.355C102.273 68.1922 99.9902 68.0114 99.3057 67.8873C98.8779 67.8097 98.4325 67.7305 97.9717 67.6509C97.9983 69.5995 97.1277 71.1248 96.7705 71.6607C96.4784 72.0985 95.9401 72.5051 95.3252 72.8052C94.6901 73.1151 93.8947 73.3508 93.0195 73.3873C92.6276 73.4035 92.1318 73.34 91.6279 73.2476C91.1108 73.1528 90.5336 73.0173 89.959 72.8677C88.8093 72.5684 87.6348 72.2028 86.9014 71.9556C86.5091 71.8234 86.298 71.3977 86.4297 71.0054C86.562 70.6129 86.9883 70.4015 87.3809 70.5337C88.0885 70.7722 89.2283 71.1279 90.3369 71.4165C90.8914 71.5609 91.4302 71.6862 91.8984 71.772C92.3796 71.8602 92.7395 71.8972 92.957 71.8882C93.6056 71.8613 94.2 71.6859 94.668 71.4576C95.1553 71.2197 95.434 70.9609 95.5225 70.8287C95.8302 70.3671 96.5653 69.0459 96.4629 67.4292C94.8126 67.2427 92.8054 67.064 90.9502 67.0152C89.9095 66.9878 88.9287 67.0002 88.0928 67.0708C87.2412 67.1428 86.601 67.2709 86.2041 67.44C85.943 67.5515 85.6173 67.8801 85.3154 68.5132C85.0241 69.1244 84.8058 69.9164 84.6924 70.7662C84.5793 71.6137 84.5746 72.4863 84.6885 73.2515C84.8044 74.0298 85.032 74.6275 85.3232 74.9917C86.0425 75.8907 87.4579 76.9115 89.1689 77.8433C90.8602 78.7644 92.755 79.5525 94.3545 80.0201C97.6118 80.9722 101.276 81.5259 102.774 81.6753C104.555 81.853 106.196 82.8169 109.688 85.5503C111.455 86.9332 113.121 88.3273 114.428 89.5884C115.081 90.2188 115.654 90.8256 116.107 91.3882C116.554 91.9421 116.918 92.4933 117.112 93.0113C117.347 93.6365 117.423 94.378 117.43 95.063C117.436 95.7203 117.378 96.3777 117.304 96.9253C117.69 100.938 118.296 104.336 119.934 107.807C121.583 111.304 124.306 114.929 129.008 119.33C129.31 119.613 129.326 120.087 129.043 120.389C128.76 120.691 128.286 120.707 127.983 120.424C123.195 115.943 120.333 112.169 118.577 108.447C117.004 105.112 116.339 101.861 115.936 98.2642L101.705 108.278C103.809 110.801 107.698 115.525 109.815 118.338C111.276 120.279 113.042 123.063 114.579 125.757C115.564 127.484 116.468 129.199 117.145 130.647L121.972 132.012L121.984 132.016C122.989 132.319 124.598 132.911 126.205 133.716C127.795 134.513 129.468 135.56 130.518 136.799C132.487 139.124 134.929 143.809 135.894 145.826C135.896 145.83 135.898 145.836 135.9 145.84L146.092 168.359C146.262 168.736 146.095 169.181 145.718 169.352C145.341 169.523 144.895 169.354 144.725 168.977L134.541 146.473L134.116 145.606C132.989 143.355 130.972 139.659 129.372 137.769C128.523 136.766 127.073 135.829 125.533 135.057C124.01 134.294 122.482 133.733 121.552 133.453L117.907 132.421C117.953 132.542 117.996 132.658 118.035 132.77C118.602 134.392 119.297 136.736 119.961 138.885C120.637 141.073 121.268 143.02 121.721 143.95C122.066 144.658 122.983 145.917 124.049 147.257C124.834 148.245 125.668 149.239 126.341 150.019L126.952 150.719L126.977 150.749L142.672 170.46C142.93 170.784 142.877 171.255 142.553 171.513C142.229 171.771 141.757 171.718 141.499 171.394L125.815 151.698C125.079 150.864 123.935 149.525 122.875 148.191C121.828 146.873 120.801 145.488 120.372 144.607C119.857 143.549 119.189 141.47 118.527 139.328C117.854 137.147 117.174 134.853 116.619 133.265C116.083 131.729 114.802 129.175 113.276 126.502C111.756 123.838 110.026 121.112 108.617 119.241C106.335 116.209 101.948 110.897 100.034 108.615C100.024 108.603 100.014 108.59 100.005 108.577C99.0772 107.314 97.5416 105.294 95.9561 103.346C94.3585 101.384 92.7493 99.5438 91.665 98.604C90.5106 97.6036 86.679 95.0492 82.4199 92.3072C80.9456 91.358 79.4286 90.3917 77.9688 89.4683C77.0728 88.9016 75.931 88.1848 74.8857 87.5269C74.9274 88.1314 74.8555 88.8018 74.5947 89.48C74.3639 90.0801 74.0233 90.7735 73.4463 91.3667C72.858 91.9715 72.0556 92.4402 70.96 92.6324C69.8432 92.8281 68.7085 92.482 67.8115 92.0718C66.8985 91.6543 66.1259 91.12 65.7021 90.815C65.2999 90.5253 64.8554 90.0682 64.4746 89.6236C64.0885 89.1728 63.7231 88.6822 63.4893 88.2925C63.2762 87.9374 63.3921 87.4764 63.7471 87.2632C64.1022 87.0505 64.5624 87.166 64.7754 87.521C64.9535 87.8178 65.2634 88.2395 65.6133 88.648C65.9685 89.0628 66.3221 89.4132 66.5791 89.5982C66.9798 89.8867 67.6576 90.3528 68.4355 90.7085C69.2295 91.0716 70.028 91.2728 70.7012 91.1548C71.4894 91.0165 72.0052 90.6969 72.3711 90.3208C72.748 89.9333 72.9985 89.4511 73.1943 88.9419C73.4356 88.3147 73.4391 87.6971 73.3291 87.1929C73.2222 86.7033 73.0278 86.4004 72.9238 86.2925C72.646 86.1195 72.5339 86.0514 72.4336 85.9917C72.3195 85.9239 72.2154 85.8628 71.9365 85.69C71.9304 85.6862 71.924 85.6823 71.918 85.6783C70.8392 84.9649 68.5993 83.5175 66.8818 83.0318C65.5791 82.6635 64.7678 82.8533 64.127 83.2652C63.4186 83.7206 62.8414 84.4876 62.1055 85.4947C61.6738 86.0856 61.5731 86.9563 61.7188 87.9175C61.8624 88.8649 62.2251 89.7514 62.5205 90.2349C63.1852 91.3224 67.4535 97.0733 71.4922 100.574C74.7608 103.407 78.278 106.102 80.626 108.741C82.9817 111.388 84.4174 114.263 83.043 117.424C82.4551 118.776 82.0697 119.798 81.7705 120.595C81.4789 121.372 81.2471 122 80.9766 122.487C80.6835 123.014 80.3333 123.403 79.8066 123.726C79.3179 124.026 78.6918 124.26 77.8887 124.528C77.2707 124.734 76.2048 124.866 74.9326 124.96C71.8724 125.188 67.1047 125.222 62.6221 125.178C59.4838 125.148 56.4708 125.079 54.2559 125.009C54.1921 125.007 54.1286 124.997 54.0674 124.979C53.3909 124.779 52.3041 124.395 51.2061 123.884C50.1238 123.381 48.9551 122.718 48.1758 121.939C48.1458 121.909 48.1173 121.877 48.0928 121.842L32.7666 100.16C32.1425 102.469 31.5723 105.029 31.5723 108.132C31.5724 109.923 32.3478 112.25 33.4688 115.011C34.5658 117.714 35.9839 120.813 37.1074 123.96C37.6969 125.612 38.7275 128.445 39.7373 131.01C40.2426 132.294 40.7399 133.503 41.1719 134.46C41.388 134.938 41.5846 135.347 41.7549 135.667C41.933 136.001 42.0584 136.192 42.127 136.271C42.1291 136.273 42.1418 136.286 42.1699 136.31C42.2009 136.336 42.2436 136.37 42.2998 136.41C42.4134 136.491 42.5657 136.589 42.7568 136.702C43.1393 136.928 43.646 137.198 44.248 137.502C45.4512 138.11 46.9931 138.832 48.5996 139.582C50.2007 140.329 51.8641 141.104 53.2939 141.808C54.7092 142.505 55.9473 143.158 56.6689 143.664C66.5364 150.577 72.6475 154.339 84.9395 157.762C92.2888 159.809 96.0864 163.981 100.829 168.102C102.822 169.833 106.328 174.189 109.855 178.847C113.405 183.535 117.037 188.614 119.298 191.861C119.534 192.201 119.451 192.668 119.111 192.905C118.772 193.141 118.304 193.058 118.067 192.718C115.815 189.483 112.195 184.42 108.66 179.752C105.104 175.056 101.695 170.842 99.8447 169.235C94.9816 165.01 91.4801 161.141 84.5371 159.208C72.0157 155.72 65.7449 151.854 55.8076 144.892C55.1943 144.463 54.0577 143.857 52.6309 143.154C51.2183 142.458 49.5715 141.691 47.9648 140.941C46.3637 140.193 44.8 139.461 43.5723 138.841C42.9589 138.532 42.4178 138.244 41.9932 137.993C41.6014 137.761 41.2125 137.506 40.9932 137.253C40.8059 137.037 40.6155 136.717 40.4316 136.372C40.2399 136.012 40.0278 135.571 39.8047 135.077C39.358 134.087 38.8507 132.853 38.3418 131.56C37.3234 128.973 36.286 126.123 35.6943 124.465C34.5828 121.352 33.2118 118.368 32.0781 115.575C30.9686 112.841 30.0724 110.257 30.0723 108.132C30.0723 104.272 30.907 101.202 31.6475 98.5738L0.134766 53.4742C0.0468876 53.3483 8.40969e-05 53.1979 0 53.0445V52.4292C0 52.2236 0.0842758 52.0259 0.233398 51.8843L53.5771 1.28178C53.696 1.16905 53.8489 1.09847 54.0117 1.08061L63.8975 0.00443994ZM27.6221 62.6724L63.0625 123.681C66.8594 123.714 70.7752 123.689 73.6357 123.539L67.1523 112.03L35.6738 59.3394L27.6221 62.6724ZM35.3857 40.7271C34.8762 40.7315 34.1811 40.941 33.3594 41.3208C31.7288 42.0746 29.9623 43.319 28.7988 44.0806C27.0809 45.2051 18.2315 51.1226 13.4355 54.3335L47.2051 99.3697L25.8945 62.6841C25.7567 62.4466 25.7597 62.1522 25.9023 61.9175C27.8094 58.7846 30.6115 53.9585 32.8193 49.6646C33.9244 47.5153 34.8721 45.5161 35.4844 43.9371C35.7912 43.1457 36.0056 42.4818 36.1162 41.9693C36.1714 41.7133 36.1968 41.5133 36.2002 41.3658C36.203 41.2427 36.1894 41.1868 36.1865 41.1753C36.102 40.9852 36.0013 40.8892 35.9014 40.8326C35.7924 40.7708 35.6294 40.725 35.3857 40.7271ZM54.4258 2.5435L1.87305 52.397L12.166 53.3785C16.8354 50.2519 26.1962 43.9911 27.9766 42.8257C29.0673 42.1118 30.9696 40.7735 32.7305 39.9595C33.6045 39.5555 34.5365 39.2343 35.373 39.2271C35.8025 39.2234 36.2432 39.3019 36.6406 39.5269C37.0467 39.7569 37.3554 40.1111 37.5576 40.566C37.6781 40.8373 37.7053 41.1348 37.6992 41.3999C37.6929 41.674 37.6493 41.9742 37.582 42.2857C37.4476 42.9086 37.2022 43.6554 36.8828 44.479C36.2422 46.1309 35.2669 48.1844 34.1533 50.3501C32.3441 53.8689 30.1434 57.7311 28.3535 60.7466L35.5322 57.7749C37.3633 55.6222 40.2356 52.4789 42.29 49.0123C44.4883 45.3027 45.2792 42.3072 46.0459 40.1402L46.0879 40.0425C46.2013 39.8255 46.4155 39.6748 46.6631 39.6451C46.9464 39.6112 47.2249 39.7411 47.3809 39.98L78.9082 88.2876C79.3804 88.5864 79.8577 88.8905 80.3379 89.1958L46.9541 37.3003C46.8834 37.1904 46.8427 37.0637 46.8359 36.9332C46.8276 36.7708 46.6974 36.3916 46.2832 35.8999C45.8873 35.4301 45.2829 34.9217 44.4639 34.4966C42.8363 33.652 40.3559 33.1348 37.0117 33.9244C33.6256 34.724 29.7326 36.6914 26.21 38.8638C22.6985 41.0294 19.6127 43.3619 17.8545 44.8404C17.5434 45.1016 17.0802 45.0681 16.8105 44.7642C16.5409 44.46 16.5634 43.9958 16.8604 43.7183L61.8203 1.73784L54.4258 2.5435Z" fill="black"/>
</svg>
