<svg width="165" height="189" viewBox="0 0 165 189" fill="none" xmlns="http://www.w3.org/2000/svg">
<path fill-rule="evenodd" clip-rule="evenodd" d="M83.9608 43.4717C84.951 43.6084 85.7402 44.2127 86.2655 44.9277C86.7888 45.6402 87.1054 46.5331 87.1054 47.374C87.1052 48.3481 86.8641 49.4011 86.2968 50.2207C85.707 51.0724 84.7691 51.6528 83.5136 51.5869C82.2377 51.5198 81.353 50.7708 80.8222 49.9248C80.3027 49.0967 80.0709 48.1062 80.1024 47.3428C80.1316 46.6442 80.3197 45.6959 80.8837 44.9014C81.476 44.0671 82.4425 43.4648 83.8583 43.4648L83.9608 43.4717ZM83.7997 44.9658C82.9088 44.9809 82.4128 45.3394 82.1073 45.7695C81.7674 46.2485 81.6234 46.8803 81.6015 47.4043C81.5825 47.8636 81.7335 48.5554 82.0927 49.1279C82.4407 49.6825 82.9321 50.055 83.5917 50.0898C84.2717 50.1256 84.7361 49.8397 85.0634 49.3672C85.4128 48.8625 85.6052 48.1316 85.6054 47.374C85.6054 46.8867 85.4118 46.3002 85.0565 45.8164C84.7137 45.3498 84.2704 45.0453 83.7997 44.9658Z" fill="black"/>
<path fill-rule="evenodd" clip-rule="evenodd" d="M82.3183 0.00292969C90.6126 0.566731 96.4426 3.79446 100.418 7.52637C102.367 9.35613 104.326 11.4274 105.914 13.499C107.49 15.5563 108.749 17.6763 109.219 19.5996C109.661 21.4074 109.866 22.7987 110.017 23.9111C110.17 25.0463 110.258 25.8073 110.457 26.4619C110.937 28.0388 111.101 30.3432 111.101 33.9219C111.101 35.8226 110.97 38.2185 110.636 40.3604C110.468 41.4306 110.247 42.4562 109.959 43.332C109.676 44.1902 109.304 44.9829 108.793 45.5186C107.465 46.908 106.014 47.2335 105.371 47.4707C105.37 47.4723 105.369 47.4749 105.367 47.4766C105.323 47.527 105.27 47.5926 105.201 47.6797C105.07 47.8445 104.891 48.0764 104.685 48.2979C104.352 48.6572 103.841 49.1116 103.154 49.2432C102.782 49.7311 102.346 50.4372 102 51.1875C101.583 52.0904 101.363 52.9191 101.419 53.4619C101.526 54.4968 101.88 55.317 102.276 56.0039C102.477 56.3514 102.686 56.6612 102.888 56.96C103.08 57.2451 103.285 57.5476 103.432 57.834C103.546 58.0594 103.54 58.3283 103.414 58.5479C103.288 58.7674 103.06 58.9088 102.808 58.9238C98.6848 59.168 96.0176 58.423 94.1435 57.4004C93.2128 56.8925 92.4993 56.327 91.9189 55.8174C91.5198 55.467 91.2246 55.1853 90.9599 54.9482C90.5078 55.4547 90.1801 55.9496 90.0214 56.4258C89.6852 57.435 89.6609 58.5378 89.8427 59.4639C90.0333 60.4341 90.4097 61.0299 90.6942 61.2197C90.7956 61.2871 91.0879 61.3828 91.6806 61.4473C92.2356 61.5076 92.9291 61.531 93.7265 61.5469C95.2805 61.5778 97.2012 61.5788 98.9394 61.8145C102.48 62.2946 106.42 64.1989 109.072 66.5859C111.723 68.9719 114.738 73.6622 116.096 77.1094C116.768 78.8157 117.299 80.4629 117.758 81.8789C118.223 83.3155 118.604 84.476 118.988 85.2822C119.466 86.2847 121.292 89.4265 122.791 91.9629L124.119 94.1963L124.153 94.2598C124.349 94.6738 124.564 95.7008 123.76 96.5049C123.601 96.6638 123.299 97.0153 122.811 97.5537C122.404 98.0034 121.894 98.5481 121.309 99.126C121.684 102.449 122.048 105.555 122.233 108.148C122.422 110.799 122.438 113.049 122.022 114.467C120.96 118.09 118.61 121.518 117.561 122.939C117.537 122.972 117.51 123.002 117.481 123.029C117.455 123.635 117.427 124.246 117.395 124.854C117.202 128.568 116.906 132.274 116.462 134.413C115.911 137.069 114.79 140.25 113.812 142.879C113.317 144.211 112.866 145.377 112.522 146.314C112.352 146.778 112.215 147.17 112.118 147.477C112.099 147.537 112.084 147.594 112.069 147.644C112.809 148.131 114.117 148.799 115.41 148.873C116.253 148.921 119.031 148.849 122.221 148.735C125.382 148.623 128.889 148.471 131.157 148.365L138.234 147.693C140.797 146.702 142.899 145.883 144.135 145.404C146.518 144.48 149.165 143.477 151.586 143.112C154.003 142.748 156.403 142.991 158.074 144.814C159.51 146.381 161.588 148.88 163.037 151.544C164.455 154.149 165.423 157.19 164.16 159.659C163.137 161.658 162.538 163.48 160.753 165.289C158.964 167.101 156.008 168.909 150.269 171.267C149.01 171.784 147.74 172.312 146.476 172.841C138.579 176.148 130.959 179.515 127.781 180.947C127.757 180.958 127.731 180.968 127.706 180.977L122.92 182.54C122.605 183.146 122.084 183.898 121.511 184.592C120.83 185.416 120 186.259 119.238 186.739C115.503 189.094 110.771 188.409 108.087 188.103C105.583 187.816 103.003 186.983 100.704 186.218C98.3494 185.435 96.3528 184.75 94.8564 184.641C93.3197 184.528 91.9415 184.696 90.6689 184.816C89.4625 184.931 88.2107 185.026 87.1962 184.579C86.4178 184.236 85.7967 183.679 85.3437 183.152C85.0675 182.831 84.8433 182.503 84.6718 182.217C82.1646 182.491 77.4288 182.988 75.1601 183.145C72.7982 183.307 65.9979 183.22 62.5595 183.152C62.4651 183.253 62.3544 183.364 62.2343 183.474C61.9425 183.74 61.5525 184.064 61.1298 184.399C60.2819 185.073 59.2596 185.828 58.5243 186.34C58.2108 186.558 57.7828 186.506 57.5312 186.219C57.1635 185.799 56.6018 185.28 55.9296 184.609C55.3553 184.037 54.7294 183.379 54.205 182.68C50.3988 182.081 42.4361 180.76 37.87 179.212C34.9494 178.222 29.8584 176.155 24.9501 173.885C20.0684 171.627 15.2577 169.118 12.9696 167.237C9.49543 164.381 8.40686 160.511 8.25968 158.53C7.17509 157.805 6.17392 157.124 5.28604 156.508C2.1582 154.339 0.514813 152.102 0.103426 149.538C-0.300941 147.017 0.518214 144.346 1.90128 141.382C2.55836 139.974 3.8139 139.061 5.28995 138.486C6.76331 137.913 8.52276 137.648 10.3212 137.573C13.6957 137.432 17.3591 137.951 19.8827 138.509L20.372 138.62L20.4062 138.63C27.6708 140.717 37.5278 145.88 42.3778 148.48L53.9403 147.734L54.1815 145.052C52.9458 142.2 50.3835 135.997 49.5233 132.791C48.6849 129.666 48.0024 125.609 47.7343 123.766C46.8406 122.716 45.5389 121.169 44.369 119.737C43.7527 118.983 43.1694 118.257 42.7011 117.651C42.2444 117.061 41.8651 116.545 41.6825 116.229C41.2977 115.564 40.6949 114.495 40.1874 113.387C39.6968 112.315 39.2305 111.072 39.2304 110.098C39.2304 108.644 39.6121 106.167 40.3007 103.537C40.9452 101.076 41.8776 98.4098 43.0712 96.2549C42.1307 95.0621 41.4997 94.0653 41.2021 93.4932C41.0851 93.2683 41.0904 92.9991 41.2148 92.7783L45.5048 85.1777C46.3077 83.501 47.9705 79.8238 48.4394 78.0742C49.0769 75.6941 51.0898 70.8281 54.4198 67.0342C57.7877 63.1974 62.3773 61.3323 64.7118 60.7744C65.9804 60.4713 68.6864 60.1618 70.9511 59.9414C71.9988 59.8394 72.9694 59.7549 73.6894 59.6973C73.8774 59.637 74.1853 59.4995 74.4774 59.2666C74.7921 59.0157 75.0524 58.6869 75.164 58.2744C75.5333 56.9077 75.3515 56.0355 74.8153 55.3799C74.6684 55.2002 74.41 54.9452 74.0409 54.6045C73.6715 54.2635 73.2521 53.8906 72.7636 53.4443C71.8106 52.5738 70.6913 51.5087 69.7333 50.3379C68.9125 49.3346 68.0501 47.4703 67.3222 45.6475C67.2454 45.4553 67.1691 45.2621 67.0946 45.0693C67.1125 45.7542 67.1232 46.4056 67.0917 46.9814C67.0514 47.7193 66.945 48.4622 66.6278 49.0166C66.459 49.3115 66.2175 49.5771 65.8788 49.7461C65.5406 49.9147 65.1689 49.9553 64.7958 49.9102C63.7788 49.7869 63.0806 49.689 62.578 49.5049C61.9816 49.2861 61.6651 48.9513 61.3612 48.5225C61.0598 48.0969 60.9293 47.5851 60.872 47.1768C60.8517 47.0323 60.8405 46.8898 60.8339 46.7559C59.8405 46.4477 58.2964 45.8061 57.1601 44.7686C56.2035 43.8949 55.6824 42.5812 55.3925 41.3652C55.0981 40.1302 55.0156 38.8806 55.0155 38.0176C55.0155 37.1984 54.8758 35.1723 54.8026 32.752C54.794 32.4674 54.7854 32.1776 54.7792 31.8857L52.4042 33.9756C52.1437 34.2046 51.7589 34.2253 51.4755 34.0254C51.1922 33.8252 51.0832 33.4559 51.2118 33.1338C51.4147 32.6265 51.5212 31.7955 51.5868 30.6289C51.6188 30.0606 51.6403 29.44 51.6649 28.7695C51.6895 28.102 51.7172 27.3882 51.7607 26.6484C51.9338 23.7016 52.3637 20.2399 53.9618 17.21C55.2023 14.8583 57.1515 12.9819 59.0722 11.6064C60.8169 10.357 62.5805 9.49249 63.8554 9.04785C65.7622 7.13082 68.0233 5.1469 70.5331 3.44727C75.2531 0.250895 79.9394 0 82.2675 0L82.3183 0.00292969ZM83.2226 169.545C83.1939 169.857 83.1604 170.181 83.121 170.462C83.0848 170.721 83.0353 171.014 82.9579 171.225C82.4538 172.592 81.4096 173.898 80.2773 175.014C79.7327 175.55 79.1533 176.054 78.5819 176.514C78.9963 176.545 79.4225 176.59 79.8407 176.656C80.4859 176.758 81.1379 176.91 81.7089 177.136C82.2684 177.357 82.8251 177.678 83.1933 178.164C84.1604 179.44 85.2116 180.507 85.6005 180.866C85.6742 180.934 85.734 181.018 85.7753 181.109C85.8784 181.337 86.12 181.754 86.4814 182.175C86.8431 182.596 87.2924 182.982 87.8007 183.206C88.3955 183.468 89.2371 183.445 90.5273 183.323C91.7513 183.207 93.2747 183.021 94.9657 183.145C96.6974 183.271 98.9169 184.043 101.178 184.795C103.494 185.565 105.931 186.346 108.257 186.612C111.084 186.935 115.233 187.491 118.438 185.471C118.999 185.117 119.709 184.419 120.354 183.637C120.97 182.891 121.453 182.156 121.662 181.7C121.733 181.336 121.738 180.938 121.797 180.319C121.854 179.719 121.964 179.013 122.294 178.302C122.522 177.808 122.684 177.078 122.785 176.315C122.884 175.567 122.918 174.854 122.918 174.438C122.918 173.613 122.91 173.165 122.79 172.772C122.682 172.422 122.46 172.057 121.875 171.517C121.897 171.537 121.864 171.5 121.694 171.45C121.538 171.405 121.324 171.365 121.051 171.334C120.505 171.273 119.803 171.259 119.029 171.281C117.487 171.326 115.747 171.512 114.582 171.704L114.529 171.714C114.492 171.72 114.436 171.73 114.364 171.742C114.219 171.767 114.007 171.804 113.735 171.851C113.193 171.943 112.415 172.075 111.471 172.229C109.583 172.535 107.029 172.931 104.371 173.288C101.716 173.645 98.9437 173.963 96.623 174.114C95.4637 174.19 94.404 174.224 93.5214 174.198C92.6642 174.173 91.8874 174.09 91.3485 173.885C89.6227 173.228 88.7555 172.598 88.1806 172.043C88.0422 171.909 87.9249 171.784 87.8261 171.677C87.7228 171.565 87.6494 171.484 87.5751 171.409C87.4412 171.275 87.3459 171.206 87.2206 171.156C86.9108 171.033 86.5086 170.813 86.1024 170.58C85.6424 170.317 85.2552 170.084 84.7499 169.796C84.2813 169.529 83.8231 169.279 83.4149 169.09C83.3638 169.066 83.3131 169.045 83.2655 169.024C83.2526 169.185 83.2394 169.361 83.2226 169.545ZM56.414 166.332C55.4397 166.332 54.2002 166.564 53.1591 167.297C52.1449 168.011 51.2422 169.255 50.9931 171.441C50.9056 172.21 51.0007 173.062 51.2411 173.97C51.4465 174.126 51.568 174.382 51.5341 174.656C51.5276 174.709 51.5154 174.76 51.4989 174.808C51.6698 175.302 51.8767 175.811 52.1161 176.328C52.9414 178.112 54.0996 179.923 55.244 181.558C55.7234 182.242 56.3562 182.916 56.9892 183.547C57.3988 183.955 57.8289 184.367 58.1923 184.735C58.8226 184.282 59.5623 183.729 60.1972 183.225C60.6095 182.897 60.9683 182.599 61.2226 182.366C61.3014 182.294 61.364 182.231 61.414 182.181C61.4091 182.156 61.4058 182.127 61.3993 182.098C61.3594 181.914 61.2956 181.677 61.2167 181.412C61.0591 180.883 60.852 180.281 60.6874 179.846C60.5855 179.576 60.6482 179.271 60.8476 179.062L64.9745 174.753L65.0224 174.707C65.085 174.652 65.1968 174.524 65.2655 174.374C65.331 174.231 65.3291 174.135 65.3036 174.066C65.2473 173.916 65.1362 173.784 64.8056 173.602C64.6356 173.508 64.4339 173.415 64.1796 173.3C63.9327 173.188 63.6432 173.059 63.3339 172.904C62.8563 172.665 62.5399 172.268 62.3212 171.866C62.1039 171.467 61.9553 171.012 61.8388 170.585C61.726 170.171 61.6199 169.693 61.5273 169.322C61.4268 168.921 61.3291 168.593 61.2138 168.343C61.1365 168.176 60.9565 167.951 60.6347 167.702C60.3204 167.459 59.9107 167.222 59.4394 167.015C58.4902 166.597 57.3695 166.332 56.414 166.332ZM62.2509 179.765C62.3872 180.149 62.5349 180.584 62.6542 180.984C62.7241 181.219 62.786 181.451 62.8349 181.657C66.3574 181.725 72.8281 181.802 75.0575 181.648C77.0138 181.514 80.8636 181.118 83.4755 180.838C83.0209 180.341 82.4985 179.732 81.997 179.07C81.8664 178.898 81.6008 178.706 81.1571 178.53C80.7248 178.359 80.1903 178.229 79.6083 178.138C78.5359 177.969 77.3842 177.94 76.5888 177.969C76.1792 178.24 75.8052 178.477 75.4833 178.662C75.3695 178.728 75.2397 178.762 75.1083 178.762H69.4315C68.9974 178.762 68.551 178.566 68.1923 178.37C67.8063 178.159 67.3977 177.877 67.0087 177.58C66.4849 177.18 65.9676 176.727 65.5399 176.33L62.2509 179.765ZM9.94815 159.649C10.3589 161.455 11.4601 164.055 13.9218 166.079C16.0385 167.819 20.6735 170.255 25.579 172.523C30.4579 174.78 35.4975 176.824 38.3515 177.791C42.2884 179.126 48.9225 180.305 53.036 180.974C52.1987 179.696 51.389 178.329 50.7548 176.958C50.4902 176.386 50.2523 175.805 50.0546 175.223C45.7462 174.659 36.3939 173.17 30.5087 170.982C24.4604 168.734 16.1648 163.727 9.94815 159.649ZM140.671 173.67C137.779 174.048 134.789 174.4 133.309 174.457C131.032 174.545 126.772 174.906 124.396 175.124C124.376 175.533 124.338 176.016 124.272 176.513C124.166 177.317 123.98 178.229 123.654 178.933C123.43 179.417 123.342 179.926 123.291 180.461C123.279 180.582 123.27 180.714 123.26 180.851L127.196 179.564C129.682 178.444 134.815 176.173 140.671 173.67ZM20.0077 140.075C17.5712 139.5 13.7964 138.93 10.3837 139.072C8.67207 139.144 7.09432 139.393 5.83389 139.884C4.57601 140.374 3.69982 141.076 3.26065 142.017C1.90342 144.925 1.25532 147.246 1.58487 149.301C1.90781 151.313 3.20056 153.236 6.14053 155.275C7.10671 155.945 8.20874 156.696 9.40811 157.495C15.7355 161.71 24.7088 167.227 31.0312 169.577C36.4861 171.605 45.1216 173.038 49.6288 173.653C49.4696 172.842 49.4142 172.041 49.5019 171.271C49.795 168.698 50.8997 167.053 52.2948 166.07C53.6629 165.107 55.2354 164.832 56.414 164.832C57.6113 164.832 58.9377 165.154 60.0439 165.642C60.5999 165.887 61.1208 166.182 61.5526 166.517C61.9766 166.845 62.3597 167.245 62.5761 167.714C62.7541 168.1 62.8787 168.544 62.9823 168.958C63.0937 169.403 63.1757 169.786 63.286 170.19C63.3928 170.582 63.505 170.904 63.6386 171.149C63.7706 171.391 63.8956 171.508 64.0048 171.562C64.2824 171.701 64.5426 171.817 64.7978 171.933C65.0455 172.045 65.3007 172.161 65.5312 172.288C66.0011 172.548 66.4707 172.907 66.7079 173.54C66.9169 174.098 66.8012 174.622 66.6288 174.999C66.5969 175.069 66.5611 175.135 66.5243 175.199C66.9291 175.576 67.4254 176.011 67.9198 176.389C68.2775 176.662 68.6189 176.894 68.912 177.054C69.0578 177.133 69.1803 177.189 69.2782 177.224C69.3264 177.24 69.3648 177.25 69.3925 177.256C69.4171 177.261 69.4315 177.262 69.4315 177.262H74.9013C75.2017 177.083 75.553 176.864 75.9335 176.607C76.9503 175.921 78.1637 174.99 79.2245 173.945C80.2958 172.89 81.1579 171.768 81.5497 170.705C81.5497 170.705 81.5519 170.701 81.5536 170.695C81.5557 170.688 81.5582 170.678 81.5614 170.666C81.568 170.641 81.5756 170.607 81.5839 170.565C81.6007 170.482 81.6184 170.377 81.6357 170.254C81.6702 170.008 81.7016 169.711 81.7294 169.408C81.7811 168.844 81.8269 168.165 81.8495 167.95C81.9163 167.315 81.8474 166.899 81.7294 166.614C81.6152 166.339 81.4299 166.128 81.1562 165.938C81.0535 165.867 80.9392 165.802 80.8144 165.737C80.6387 165.721 80.4758 165.646 80.3534 165.524C80.2487 165.481 80.1375 165.438 80.0204 165.394C79.5779 165.227 78.9914 165.031 78.4462 164.808C77.4201 164.388 75.4676 163.839 73.4003 163.257C71.376 162.687 69.2482 162.088 67.9784 161.58C66.943 161.166 62.9481 159.445 58.5243 157.52C58.4318 157.514 58.3404 157.494 58.2558 157.455L55.7235 156.299C50.4975 154.015 45.4046 151.764 44.4306 151.277C42.3947 150.259 29.1188 142.697 20.0077 140.075ZM156.969 145.828C155.801 144.555 154.041 144.259 151.809 144.596C149.581 144.932 147.089 145.867 144.677 146.803C143.489 147.263 141.483 148.045 139.027 148.995C138.915 149.088 138.775 149.15 138.62 149.165L138.577 149.169C131.143 152.043 119.965 156.313 114.681 157.978C109.265 159.684 92.0706 163.417 82.7255 165.374C82.8771 165.569 83.0102 165.788 83.1142 166.038C83.2873 166.455 83.37 166.925 83.373 167.453C83.5988 167.531 83.8272 167.628 84.0458 167.729C84.5121 167.946 85.0144 168.219 85.4931 168.492C85.9351 168.744 86.4828 169.07 86.8476 169.278C87.2659 169.518 87.5796 169.685 87.7763 169.764C88.1571 169.916 88.4188 170.131 88.6366 170.35C88.738 170.451 88.84 170.564 88.9286 170.66C89.0219 170.761 89.1159 170.861 89.2226 170.964C89.6289 171.356 90.3146 171.886 91.8827 172.482C92.1679 172.591 92.7237 172.673 93.5653 172.698C94.3821 172.722 95.3903 172.691 96.5263 172.617C98.7968 172.47 101.529 172.156 104.172 171.801C106.811 171.446 109.35 171.052 111.229 170.747C112.169 170.594 112.943 170.464 113.482 170.372C113.752 170.326 113.963 170.29 114.106 170.265C114.178 170.252 114.233 170.243 114.269 170.236C114.288 170.233 114.301 170.23 114.31 170.229C114.315 170.228 114.319 170.227 114.321 170.227H114.324L114.333 170.225C115.561 170.022 117.371 169.829 118.986 169.782C119.792 169.759 120.572 169.772 121.217 169.844C121.538 169.88 121.846 169.932 122.114 170.011C122.367 170.085 122.662 170.202 122.892 170.413C123.59 171.057 124.01 171.638 124.224 172.332C124.349 172.741 124.39 173.169 124.405 173.617C126.81 173.398 130.979 173.045 133.251 172.958C135.71 172.863 142.687 171.904 145.989 171.419C147.225 170.902 148.467 170.386 149.7 169.88C155.396 167.54 158.118 165.824 159.685 164.235C161.256 162.644 161.694 161.185 162.824 158.976C163.714 157.236 163.116 154.827 161.72 152.261C160.355 149.753 158.371 147.358 156.969 145.828ZM111.937 149.313C111.92 151.151 111.951 154.313 111.975 156.077C111.978 156.276 111.901 156.468 111.763 156.61C111.624 156.753 111.434 156.834 111.235 156.837L62.1894 157.475C65.2706 158.809 67.7554 159.875 68.536 160.188C69.7133 160.658 71.746 161.233 73.8075 161.813C75.8263 162.382 77.8878 162.958 79.0146 163.419C79.5455 163.636 80.0187 163.79 80.5497 163.99C80.7156 164.053 80.8829 164.121 81.0497 164.192C90.0084 162.331 108.626 158.312 114.229 156.547C118.386 155.237 126.25 152.289 133.03 149.694L131.273 149.861C131.261 149.862 131.249 149.864 131.237 149.864C128.966 149.97 125.447 150.121 122.274 150.234C119.126 150.347 116.257 150.423 115.325 150.37C114.058 150.298 112.838 149.805 111.937 149.313ZM44.8847 149.822C44.9688 149.866 45.0409 149.905 45.1015 149.936C45.8697 150.32 49.3456 151.864 53.4071 153.646L53.8036 149.246L44.8847 149.822ZM44.1083 97.498C43.1261 99.4092 42.3272 101.72 41.7519 103.917C41.0778 106.491 40.7304 108.828 40.7304 110.098C40.7306 110.71 41.0581 111.684 41.5517 112.763C42.0285 113.804 42.602 114.822 42.9814 115.479C43.105 115.692 43.4201 116.129 43.8876 116.733C44.3443 117.324 44.9176 118.038 45.5302 118.788C46.2431 119.661 47.0078 120.576 47.6962 121.396V114.531C47.6963 114.332 47.7764 114.141 47.9179 114C48.0595 113.859 48.2514 113.78 48.4511 113.781L55.8964 113.826C55.4659 113.335 54.937 112.728 54.3964 112.057C53.1924 110.56 51.8308 108.634 51.3573 106.851C51.3309 106.751 51.3261 106.646 51.3417 106.544C51.3748 106.329 51.4698 106.039 51.5663 105.772C51.6704 105.485 51.8027 105.152 51.9403 104.82C52.0844 104.474 52.2384 104.12 52.3769 103.811C50.704 103.018 48.597 101.792 46.6972 100.101C45.707 99.2192 44.843 98.3311 44.1083 97.498ZM119.945 100.426C119.044 101.263 117.997 102.196 117.117 102.851C115.51 104.047 113.998 105.099 112.758 105.881C112.138 106.271 111.577 106.6 111.102 106.846C110.883 106.959 110.668 107.062 110.466 107.146C110.493 107.864 110.56 108.769 110.6 109.671C110.625 110.222 110.639 110.766 110.619 111.22C110.609 111.446 110.589 111.667 110.555 111.864C110.523 112.043 110.466 112.28 110.338 112.483C110.136 112.803 109.746 113.324 109.436 113.775C109.35 113.901 109.266 114.028 109.184 114.154L116.963 114.202C117.162 114.203 117.353 114.285 117.493 114.427C117.633 114.569 117.71 114.762 117.708 114.961C117.693 116.339 117.652 118.206 117.585 120.263C118.641 118.623 119.905 116.359 120.583 114.045C120.911 112.925 120.928 110.939 120.736 108.255C120.575 105.991 120.273 103.325 119.945 100.426ZM107.85 105.626C107.775 106.174 107.706 106.799 107.637 107.436C107.502 108.676 107.374 109.977 107.24 110.601C107.083 111.333 106.534 112.918 106.092 114.135L107.452 114.144C107.677 113.713 107.948 113.295 108.199 112.928C108.574 112.381 108.862 112.004 109.054 111.704C109.058 111.691 109.068 111.66 109.078 111.604C109.097 111.496 109.112 111.346 109.12 111.153C109.137 110.769 109.126 110.279 109.101 109.738C109.065 108.929 108.997 107.978 108.968 107.217C108.779 107.116 108.62 106.98 108.497 106.839C108.225 106.527 108.032 106.116 107.891 105.74C107.876 105.703 107.863 105.664 107.85 105.626ZM70.3065 61.5156C68.2312 61.7281 66.0776 61.9904 65.0605 62.2334C62.9349 62.7414 58.6557 64.4829 55.5478 68.0234C52.402 71.6073 50.4797 76.2514 49.8876 78.4619C49.3743 80.3779 47.6333 84.2075 46.8476 85.8467C46.8404 85.8617 46.8323 85.8771 46.8241 85.8916L42.7274 93.1475C43.0712 93.7309 43.6819 94.6422 44.5556 95.71C45.3794 96.7168 46.4298 97.8541 47.6952 98.9805C49.7188 100.782 52.0157 102.032 53.6728 102.753C54.1 102.939 54.4809 103.086 54.7978 103.198C55.1461 102.673 55.6194 101.972 55.9462 101.545C56.3264 101.048 56.8587 100.502 57.703 100.277C57.493 98.7076 57.2344 96.8801 57.2343 94.9531C57.2343 94.539 57.5702 94.2033 57.9843 94.2031C58.3984 94.2032 58.7343 94.539 58.7343 94.9531C58.7344 97.0677 59.0635 99.0295 59.289 100.827C59.4889 102.422 59.7994 104.817 59.9901 106.057C60.3568 108.44 60.4778 111.912 60.5009 113.854L104.495 114.125C104.953 112.885 105.617 111.014 105.773 110.286C105.886 109.762 106.003 108.583 106.145 107.273C106.281 106.02 106.44 104.644 106.641 103.862C106.736 103.489 106.83 103.195 106.927 102.977C106.975 102.868 107.035 102.753 107.112 102.648C107.181 102.556 107.321 102.394 107.555 102.312C107.845 102.211 108.124 102.285 108.317 102.425C108.475 102.539 108.562 102.683 108.603 102.762C108.691 102.926 108.74 103.114 108.769 103.239C108.897 103.793 109.054 104.574 109.294 105.211C109.415 105.532 109.532 105.743 109.627 105.852L109.631 105.856C109.786 105.81 110.044 105.705 110.413 105.514C110.837 105.294 111.359 104.99 111.958 104.612C113.156 103.857 114.635 102.829 116.222 101.647C117.411 100.762 118.981 99.2958 120.003 98.3086C120.667 97.6672 121.244 97.0504 121.7 96.5469C122.136 96.0656 122.507 95.6368 122.699 95.4443C122.795 95.348 122.829 95.247 122.835 95.1455C122.841 95.0422 122.815 94.9535 122.802 94.916C121.353 92.4958 118.305 87.3375 117.634 85.9277C117.198 85.0127 116.784 83.7436 116.33 82.3418C115.869 80.919 115.353 79.3154 114.7 77.6592C113.409 74.3811 110.512 69.9001 108.068 67.7002C105.625 65.5018 101.961 63.7379 98.7372 63.3008C97.3168 63.1082 95.7614 63.0822 94.3232 63.0576C93.9315 64.8274 92.9453 68.021 91.2167 70.4971C90.2074 71.9426 88.6965 73.2318 87.2587 74.2451C85.8137 75.2635 84.3901 76.0402 83.5058 76.4492C83.3223 76.5339 83.1115 76.5409 82.9228 76.4688C81.1746 75.7997 76.962 73.83 74.078 71.2607C72.5284 69.88 71.5946 67.7907 71.0419 65.8311C70.5978 64.2559 70.3823 62.6964 70.3065 61.5156ZM57.9003 101.792C57.5909 101.925 57.364 102.16 57.1376 102.456C56.7315 102.987 56.0378 104.032 55.7362 104.498C55.5558 104.776 55.2137 104.903 54.8954 104.81C54.5905 104.72 54.2025 104.585 53.7528 104.407C53.619 104.706 53.4682 105.053 53.3261 105.396C53.1931 105.716 53.0697 106.026 52.9765 106.283C52.9209 106.437 52.8829 106.555 52.8583 106.638C53.2857 108.047 54.4094 109.681 55.5644 111.116C56.1544 111.85 56.7309 112.506 57.1894 113.028C57.4161 113.287 57.6198 113.519 57.7773 113.707C57.8122 113.749 57.8469 113.795 57.8827 113.839L59.0009 113.846C58.9773 111.927 58.857 108.556 58.5077 106.285C58.3429 105.214 58.0942 103.315 57.9003 101.792ZM66.8866 35.1426C66.9616 36.9511 67.0228 38.793 67.0321 40.3145C67.3958 41.4984 68.0128 43.3316 68.7157 45.0918C69.4512 46.9334 70.2399 48.5877 70.8944 49.3877C71.7805 50.4706 72.833 51.4761 73.7753 52.3369C74.2341 52.7561 74.6942 53.1657 75.0585 53.502C75.4231 53.8386 75.7547 54.1586 75.9765 54.4297C76.9152 55.5773 77.0623 57.0005 76.6122 58.666C76.3958 59.4664 75.9042 60.0477 75.413 60.4395C74.9271 60.8269 74.4037 61.0603 74.037 61.1611C73.9915 61.1736 73.9444 61.1818 73.8974 61.1855C73.3374 61.2299 72.6076 61.294 71.8007 61.3691C71.8671 62.4566 72.0663 63.9344 72.4862 65.4238C73.0078 67.2733 73.8394 69.0388 75.0761 70.1406C77.6187 72.4057 81.3527 74.2161 83.1659 74.9482C83.982 74.5478 85.1786 73.8755 86.3944 73.0186C87.7707 72.0486 89.1217 70.8783 89.9872 69.6387C91.4817 67.4979 92.3909 64.7036 92.7929 63.0186C92.3343 63.0017 91.9028 62.9803 91.5185 62.9385C90.9279 62.8742 90.2984 62.7584 89.8622 62.4678C89.077 61.9442 88.5871 60.8582 88.37 59.7529C88.1443 58.6031 88.1709 57.2345 88.5985 55.9512C89.056 54.5789 90.3133 53.3523 91.579 52.3359C92.8499 51.3154 94.3541 50.3416 95.3388 49.6211C96.0733 49.0835 96.9199 48.0881 97.7021 47.001C98.4599 45.9476 99.1113 44.8724 99.4833 44.1982C99.9983 43.0186 100.275 41.3738 100.416 39.8281C100.556 38.2906 100.557 36.9293 100.557 36.3711C100.557 35.9034 100.555 35.0781 100.564 34.1162C97.6602 33.8671 92.3929 33.2868 87.6532 32.1201C82.7903 30.9231 74.5251 27.2016 70.3524 25.1885L66.8866 35.1426ZM98.9198 47.877C98.1216 48.9864 97.1609 50.1468 96.2245 50.832C95.1202 51.6401 93.7696 52.5011 92.5185 53.5059C92.3529 53.6388 92.1926 53.7712 92.039 53.9033C92.324 54.16 92.6218 54.439 92.9081 54.6904C93.4402 55.1576 94.0623 55.6474 94.8622 56.084C96.2658 56.8498 98.2873 57.4894 101.425 57.4688C101.282 57.2525 101.127 57.0136 100.977 56.7539C100.511 55.946 100.062 54.9221 99.9267 53.6162C99.827 52.6533 100.197 51.5146 100.638 50.5596C100.835 50.1314 101.061 49.7122 101.294 49.3262C101.061 49.3092 100.814 49.269 100.573 49.1758C100.11 48.9964 99.7312 48.6547 99.4862 48.125C99.3863 47.9086 99.3124 47.6646 99.2587 47.3936C99.1483 47.5539 99.0356 47.7161 98.9198 47.877ZM96.5507 11.333C88.8468 7.66743 83.1796 7.42902 77.371 8.47949C71.4577 9.54891 66.7038 11.1629 63.2587 14.5479C59.7319 18.0131 58.7006 20.4114 58.4101 22.7871C58.2869 23.7959 58.7102 24.5106 59.2431 24.9258C59.5163 25.1385 59.8095 25.2641 60.0575 25.3105C60.3168 25.359 60.4563 25.3108 60.4989 25.2842C60.7293 25.1402 60.9609 24.9682 61.2548 24.7617C61.533 24.5663 61.8525 24.3513 62.1962 24.1758C62.8974 23.8177 63.7867 23.5858 64.7587 24.0361C65.5576 24.4064 66.0818 24.8781 66.3427 25.5791C66.5709 26.1928 66.5605 26.9197 66.5605 27.6299C66.5605 28.1384 66.6224 29.4366 66.703 31.1084L69.2128 23.9023L69.2431 23.8281C69.3226 23.6598 69.4627 23.5265 69.6366 23.4551C69.8353 23.3736 70.0591 23.3809 70.2519 23.4756C74.1091 25.3715 83.012 29.4323 88.0116 30.6631C92.5872 31.7893 97.6978 32.3622 100.588 32.6133C100.592 32.4156 100.596 32.2158 100.601 32.0176C100.628 31.1369 100.669 30.2556 100.734 29.5098C100.797 28.7955 100.889 28.1109 101.047 27.6855C101.282 27.0519 101.535 26.4548 101.862 26.0127C102.212 25.5399 102.707 25.17 103.396 25.1699C103.668 25.17 103.963 25.247 104.218 25.3291V22.6963C104.218 22.5258 104.209 22.3402 104.192 22.1416C103.964 19.4905 103.612 17.2371 101.919 14.5195C100.657 13.545 98.9403 12.4701 96.5507 11.333ZM61.0536 12.0859C60.6883 12.3128 60.3169 12.56 59.9452 12.8262C58.1436 14.1165 56.3864 15.8289 55.289 17.9092C53.8472 20.6426 53.4282 23.8349 53.2577 26.7363C53.2153 27.4581 53.1885 28.1571 53.164 28.8242C53.1396 29.4882 53.1169 30.1264 53.0839 30.7129C53.0703 30.9537 53.053 31.1919 53.0341 31.4238L54.7636 29.9023C54.7742 28.4167 54.8437 26.969 55.0243 25.8047C55.3206 23.8957 56.0528 21.416 56.9931 19.0693C57.93 16.731 59.1042 14.4482 60.3153 12.9678C60.5483 12.683 60.7951 12.3883 61.0536 12.0859ZM105.718 25.8691C105.877 25.9198 106.022 25.9608 106.15 25.9844C106.308 26.0134 106.388 26.0077 106.416 26.0049C106.434 25.9854 106.486 25.929 106.555 25.7979C106.607 25.6986 106.657 25.5802 106.704 25.4492L105.718 24.2305V25.8691ZM104.966 17.6553C105.365 19.0409 105.539 20.3849 105.664 21.7803L107.018 23.4541C107.008 22.9102 106.97 22.2493 106.876 21.6006C106.732 20.6073 106.487 19.8115 106.173 19.4277C105.857 19.0414 105.539 18.5064 105.209 18.0088C105.133 17.8943 105.051 17.7769 104.966 17.6553Z" fill="black"/>
</svg>
