<svg width="28" height="28" viewBox="0 0 28 28" fill="none" xmlns="http://www.w3.org/2000/svg">
<path d="M18.088 3.5C17.864 3.5 17.6447 3.54667 17.43 3.64C17.2153 3.73333 17.0427 3.84533 16.912 3.976L8.624 12.376C8.32534 12.6747 8.176 13.0993 8.176 13.65C8.176 14.2007 8.32534 14.6253 8.624 14.924L16.912 23.912C17.1173 24.1173 17.3087 24.2667 17.486 24.36C17.6633 24.4533 17.864 24.5 18.088 24.5C18.6293 24.5 19.0587 24.3413 19.376 24.024C19.544 23.856 19.684 23.6553 19.796 23.422C19.908 23.1887 19.964 22.96 19.964 22.736C19.964 22.1947 19.768 21.7747 19.376 21.476L12.264 13.636L19.376 6.3C19.6747 6.00133 19.824 5.64667 19.824 5.236C19.824 4.69467 19.6747 4.27467 19.376 3.976C19.1333 3.78933 18.9187 3.66333 18.732 3.598C18.5453 3.53267 18.3307 3.5 18.088 3.5Z" fill="black"/>
</svg>
