<svg width="28" height="28" viewBox="0 0 28 28" fill="none" xmlns="http://www.w3.org/2000/svg">
<path d="M19.488 14.924C19.8054 14.6067 19.964 14.1773 19.964 13.636C19.964 13.3933 19.9267 13.1693 19.852 12.964C19.7774 12.7587 19.656 12.6 19.488 12.488L11.2 4.088C11.0134 3.90133 10.822 3.75667 10.626 3.654C10.43 3.55133 10.192 3.5 9.91203 3.5C9.44536 3.5 9.06269 3.65867 8.76403 3.976C8.57736 4.144 8.43269 4.34 8.33003 4.564C8.22736 4.788 8.17603 5.012 8.17603 5.236C8.17603 5.796 8.32536 6.22533 8.62403 6.524L15.764 13.776L8.51203 21.588C8.21336 21.8867 8.06403 22.316 8.06403 22.876C8.06403 23.324 8.25069 23.7533 8.62403 24.164C8.99736 24.388 9.42669 24.5 9.91203 24.5C10.1547 24.5 10.388 24.4487 10.612 24.346C10.836 24.2433 11.032 24.0987 11.2 23.912L19.488 14.924Z" fill="black"/>
</svg>
